{
	"asset":{
		"generator":"Khronos glTF Blender I/O v4.2.70",
		"version":"2.0"
	},
	"scene":0,
	"scenes":[
		{
			"name":"Scene",
			"nodes":[
				0
			]
		}
	],
	"nodes":[
		{
			"mesh":0,
			"name":"Cone"
		}
	],
	"materials":[
		{
			"doubleSided":true,
			"name":"Material.001",
			"pbrMetallicRoughness":{
				"baseColorTexture":{
					"index":0
				},
				"metallicFactor":0,
				"roughnessFactor":0.5
			}
		}
	],
	"meshes":[
		{
			"name":"Cone",
			"primitives":[
				{
					"attributes":{
						"POSITION":0,
						"TEXCOORD_0":1
					},
					"indices":2,
					"material":0
				}
			]
		}
	],
	"textures":[
		{
			"sampler":0,
			"source":0
		}
	],
	"images":[
		{
			"mimeType":"image/jpeg",
			"name":"grad",
			"uri":"textures/grad.jpg"
		}
	],
	"accessors":[
		{
			"bufferView":0,
			"componentType":5126,
			"count":73,
			"max":[
				0.16666649281978607,
				0.16666647791862488,
				3.725290298461914e-09
			],
			"min":[
				-0.16666649281978607,
				-0.16666650772094727,
				-0.9999990463256836
			],
			"type":"VEC3"
		},
		{
			"bufferView":1,
			"componentType":5126,
			"count":73,
			"type":"VEC2"
		},
		{
			"bufferView":2,
			"componentType":5123,
			"count":234,
			"type":"SCALAR"
		}
	],
	"bufferViews":[
		{
			"buffer":0,
			"byteLength":876,
			"byteOffset":0,
			"target":34962
		},
		{
			"buffer":0,
			"byteLength":584,
			"byteOffset":876,
			"target":34962
		},
		{
			"buffer":0,
			"byteLength":468,
			"byteOffset":1460,
			"target":34963
		}
	],
	"samplers":[
		{
			"magFilter":9729,
			"minFilter":9987
		}
	],
	"buffers":[
		{
			"byteLength":1928,
			"uri":"arrow.bin"
		}
	]
}
