{
	"asset":{
		"generator":"Khronos glTF Blender I/O v5.2.39",
		"version":"2.0"
	},
	"scene":0,
	"scenes":[
		{
			"name":"Scene",
			"nodes":[
				0
			]
		}
	],
	"nodes":[
		{
			"mesh":0,
			"name":"Desert Eagle"
		}
	],
	"materials":[
		{
			"doubleSided":true,
			"name":"Desert Eagle",
			"pbrMetallicRoughness":{
				"baseColorTexture":{
					"index":0
				}
			}
		}
	],
	"meshes":[
		{
			"name":"Plane",
			"primitives":[
				{
					"attributes":{
						"POSITION":0,
						"TEXCOORD_0":1
					},
					"indices":2,
					"material":0
				}
			]
		}
	],
	"textures":[
		{
			"sampler":0,
			"source":0
		}
	],
	"images":[
		{
			"mimeType":"image/png",
			"name":"DesertEagle_Desert_Eagle_BaseColor",
			"uri":"textures/DesertEagle_Desert_Eagle_BaseColor.png"
		}
	],
	"accessors":[
		{
			"bufferView":0,
			"componentType":5126,
			"count":4361,
			"max":[
				0.08926796913146973,
				0.31920742988586426,
				0.08741569519042969
			],
			"min":[
				-0.06612277030944824,
				0.05237691104412079,
				0.006859827786684036
			],
			"type":"VEC3"
		},
		{
			"bufferView":1,
			"componentType":5126,
			"count":4361,
			"type":"VEC2"
		},
		{
			"bufferView":2,
			"componentType":5123,
			"count":13095,
			"type":"SCALAR"
		}
	],
	"bufferViews":[
		{
			"buffer":0,
			"byteLength":52332,
			"byteOffset":0,
			"target":34962
		},
		{
			"buffer":0,
			"byteLength":34888,
			"byteOffset":52332,
			"target":34962
		},
		{
			"buffer":0,
			"byteLength":26190,
			"byteOffset":87220,
			"target":34963
		}
	],
	"samplers":[
		{
			"magFilter":9729,
			"minFilter":9987
		}
	],
	"buffers":[
		{
			"byteLength":113412,
			"uri":"deagle.bin"
		}
	]
}
