{
	"asset":{
		"generator":"Khronos glTF Blender I/O v5.2.39",
		"version":"2.0"
	},
	"scene":0,
	"scenes":[
		{
			"name":"Scene",
			"nodes":[
				0
			]
		}
	],
	"nodes":[
		{
			"mesh":0,
			"name":"Plane"
		}
	],
	"meshes":[
		{
			"name":"Plane.001",
			"primitives":[
				{
					"attributes":{
						"POSITION":0
					},
					"indices":1
				}
			]
		}
	],
	"accessors":[
		{
			"bufferView":0,
			"componentType":5126,
			"count":23,
			"max":[
				12.539806365966797,
				2.0529652644540874e-08,
				2.707981824874878
			],
			"min":[
				-3.103724956512451,
				-2.0529585142980977e-08,
				-8.39350700378418
			],
			"type":"VEC3"
		},
		{
			"bufferView":1,
			"componentType":5123,
			"count":69,
			"type":"SCALAR"
		}
	],
	"bufferViews":[
		{
			"buffer":0,
			"byteLength":276,
			"byteOffset":0,
			"target":34962
		},
		{
			"buffer":0,
			"byteLength":138,
			"byteOffset":276,
			"target":34963
		}
	],
	"buffers":[
		{
			"byteLength":416,
			"uri":"nav.bin"
		}
	]
}
