{
	"asset":{
		"generator":"Khronos glTF Blender I/O v4.2.70",
		"version":"2.0"
	},
	"scene":0,
	"scenes":[
		{
			"name":"Scene",
			"nodes":[
				21
			]
		}
	],
	"nodes":[
		{
			"name":"neck_joint_2",
			"rotation":[
				-1.9376819593297512e-10,
				-0.9999843835830688,
				0.005583911202847958,
				7.549672886852932e-08
			],
			"translation":[
				1.5100973249637661e-10,
				0.0665055587887764,
				4.132744280127554e-08
			]
		},
		{
			"children":[
				0
			],
			"name":"neck_joint_1",
			"rotation":[
				0.6354517936706543,
				-5.747947895429206e-08,
				3.6917967349836545e-08,
				0.772140622138977
			],
			"translation":[
				-6.966252463769251e-09,
				2.6158522814512253e-07,
				0.05256011709570885
			]
		},
		{
			"name":"arm_joint_L_3",
			"rotation":[
				0.05729059502482414,
				0.02822726219892502,
				0.055559806525707245,
				0.996410608291626
			],
			"scale":[
				0.9999999403953552,
				1,
				0.9999999403953552
			],
			"translation":[
				-2.3399479687213898e-08,
				0.18551655113697052,
				1.210719347000122e-08
			]
		},
		{
			"children":[
				2
			],
			"name":"arm_joint_L_2",
			"rotation":[
				-0.002400096971541643,
				0.13981153070926666,
				0.27183112502098083,
				0.9521317481994629
			],
			"translation":[
				-1.862645149230957e-08,
				0.24452605843544006,
				3.341119736433029e-08
			]
		},
		{
			"children":[
				3
			],
			"name":"arm_joint_L_1",
			"rotation":[
				-0.6789421439170837,
				-0.6879448294639587,
				0.24067816138267517,
				0.08856350183486938
			],
			"scale":[
				1.0000001192092896,
				0.9999997615814209,
				1
			],
			"translation":[
				0.08800039440393448,
				-0.00019934136071242392,
				-0.0009776224615052342
			]
		},
		{
			"name":"arm_joint_R_3",
			"rotation":[
				0.07854883372783661,
				-0.14253513514995575,
				0.014102163724601269,
				0.9865672588348389
			],
			"scale":[
				0.9999998807907104,
				1,
				1
			],
			"translation":[
				-1.043081283569336e-07,
				0.1855165809392929,
				1.0803341865539551e-07
			]
		},
		{
			"children":[
				5
			],
			"name":"arm_joint_R_2",
			"rotation":[
				0.2280062884092331,
				-0.9096478223800659,
				0.14802345633506775,
				0.314074844121933
			],
			"scale":[
				0.9999999403953552,
				0.9999997615814209,
				0.9999999403953552
			],
			"translation":[
				-3.3527612686157227e-08,
				0.24452565610408783,
				-4.423782229423523e-09
			]
		},
		{
			"children":[
				6
			],
			"name":"arm_joint_R_1",
			"rotation":[
				-0.276431143283844,
				-0.051863498985767365,
				0.6651873588562012,
				0.6916804313659668
			],
			"translation":[
				-0.0880005955696106,
				-0.00019928798428736627,
				-0.0009775186190381646
			]
		},
		{
			"children":[
				1,
				4,
				7
			],
			"name":"torso_joint_3",
			"rotation":[
				-0.6378585696220398,
				6.183405787396623e-08,
				-3.287559025011433e-08,
				0.7701535820960999
			],
			"translation":[
				8.271161533457416e-15,
				0.21801790595054626,
				-1.30385116037246e-08
			]
		},
		{
			"children":[
				8
			],
			"name":"torso_joint_2",
			"rotation":[
				0.7380747199058533,
				0.0019671216141432524,
				-0.0021518871653825045,
				0.6747127175331116
			],
			"scale":[
				1.0000001192092896,
				1.0000001192092896,
				1.0000001192092896
			],
			"translation":[
				0.0009999482426792383,
				-7.264316082000732e-08,
				0.17149069905281067
			]
		},
		{
			"name":"leg_joint_L_5",
			"rotation":[
				0.0245321374386549,
				-0.3199964165687561,
				0.9446002244949341,
				0.06878148764371872
			],
			"scale":[
				0.9999999403953552,
				1.0000001192092896,
				1.0000001192092896
			],
			"translation":[
				-0.0023464984260499477,
				-0.06617330014705658,
				0.027856791391968727
			]
		},
		{
			"children":[
				10
			],
			"name":"leg_joint_L_3",
			"rotation":[
				-0.8477688431739807,
				0.0022815787233412266,
				0.006338704843074083,
				0.5303232073783875
			],
			"scale":[
				0.9999999403953552,
				1.0000001192092896,
				1.0000003576278687
			],
			"translation":[
				-7.583366823382676e-09,
				0.27582409977912903,
				-8.463393896818161e-08
			]
		},
		{
			"children":[
				11
			],
			"name":"leg_joint_L_2",
			"rotation":[
				-0.21115440130233765,
				0.29843229055404663,
				0.04688592627644539,
				0.9295986890792847
			],
			"scale":[
				0.9999999403953552,
				0.9999998807907104,
				0.9999998807907104
			],
			"translation":[
				2.3166649043560028e-08,
				0.2661122977733612,
				3.725290298461914e-09
			]
		},
		{
			"children":[
				12
			],
			"name":"leg_joint_L_1",
			"rotation":[
				-0.21088069677352905,
				0.6243307590484619,
				-0.7247720956802368,
				0.20111167430877686
			],
			"scale":[
				1,
				0.9999997019767761,
				0.9999998211860657
			],
			"translation":[
				0.06761923432350159,
				0.00446108216419816,
				-0.07226460427045822
			]
		},
		{
			"name":"leg_joint_R_5",
			"rotation":[
				0.034143295139074326,
				0.3191778361797333,
				-0.9461713433265686,
				0.04146827757358551
			],
			"scale":[
				0.9999999403953552,
				0.9999998807907104,
				0.9999999403953552
			],
			"translation":[
				-0.00145851937122643,
				-0.06619866192340851,
				0.02785678394138813
			]
		},
		{
			"children":[
				14
			],
			"name":"leg_joint_R_3",
			"rotation":[
				-0.8471669554710388,
				0.03204818814992905,
				0.02484026737511158,
				0.5297774076461792
			],
			"scale":[
				0.9999999403953552,
				1.0000001192092896,
				1.0000001192092896
			],
			"translation":[
				4.300818545743823e-08,
				0.2758242189884186,
				-2.7124769985675812e-08
			]
		},
		{
			"children":[
				15
			],
			"name":"leg_joint_R_2",
			"rotation":[
				-0.21606142818927765,
				-0.08107983320951462,
				0.010079972445964813,
				0.9729552268981934
			],
			"scale":[
				1,
				1.0000001192092896,
				1.0000001192092896
			],
			"translation":[
				-3.864988684654236e-08,
				0.2661121189594269,
				1.1781230568885803e-07
			]
		},
		{
			"children":[
				16
			],
			"name":"leg_joint_R_1",
			"rotation":[
				-0.02339867502450943,
				-0.6542637944221497,
				0.7544647455215454,
				0.04663005843758583
			],
			"scale":[
				1.0000001192092896,
				1.0000001192092896,
				1.0000001192092896
			],
			"translation":[
				-0.06845718622207642,
				0.004460893105715513,
				-0.07147125154733658
			]
		},
		{
			"children":[
				9,
				13,
				17
			],
			"name":"torso_joint_1",
			"rotation":[
				-0.03792930766940117,
				-0.0029134077485650778,
				0.00011058491509174928,
				0.9992762207984924
			],
			"translation":[
				2.5549596216478676e-08,
				-1.4155200744880858e-07,
				0.6860002875328064
			]
		},
		{
			"mesh":0,
			"name":"Proxy",
			"skin":0
		},
		{
			"children":[
				19,
				18
			],
			"name":"Armature"
		},
		{
			"children":[
				20
			],
			"name":"Z_UP",
			"rotation":[
				0,
				0.7071068286895752,
				0.7071068286895752,
				3.090862321641907e-08
			]
		}
	],
	"animations":[
		{
			"channels":[
				{
					"sampler":0,
					"target":{
						"node":18,
						"path":"translation"
					}
				},
				{
					"sampler":1,
					"target":{
						"node":18,
						"path":"rotation"
					}
				},
				{
					"sampler":2,
					"target":{
						"node":18,
						"path":"scale"
					}
				},
				{
					"sampler":3,
					"target":{
						"node":9,
						"path":"translation"
					}
				},
				{
					"sampler":4,
					"target":{
						"node":9,
						"path":"rotation"
					}
				},
				{
					"sampler":5,
					"target":{
						"node":9,
						"path":"scale"
					}
				},
				{
					"sampler":6,
					"target":{
						"node":8,
						"path":"translation"
					}
				},
				{
					"sampler":7,
					"target":{
						"node":8,
						"path":"rotation"
					}
				},
				{
					"sampler":8,
					"target":{
						"node":8,
						"path":"scale"
					}
				},
				{
					"sampler":9,
					"target":{
						"node":1,
						"path":"translation"
					}
				},
				{
					"sampler":10,
					"target":{
						"node":1,
						"path":"rotation"
					}
				},
				{
					"sampler":11,
					"target":{
						"node":1,
						"path":"scale"
					}
				},
				{
					"sampler":12,
					"target":{
						"node":0,
						"path":"translation"
					}
				},
				{
					"sampler":13,
					"target":{
						"node":0,
						"path":"rotation"
					}
				},
				{
					"sampler":14,
					"target":{
						"node":0,
						"path":"scale"
					}
				},
				{
					"sampler":15,
					"target":{
						"node":4,
						"path":"translation"
					}
				},
				{
					"sampler":16,
					"target":{
						"node":4,
						"path":"rotation"
					}
				},
				{
					"sampler":17,
					"target":{
						"node":4,
						"path":"scale"
					}
				},
				{
					"sampler":18,
					"target":{
						"node":3,
						"path":"translation"
					}
				},
				{
					"sampler":19,
					"target":{
						"node":3,
						"path":"rotation"
					}
				},
				{
					"sampler":20,
					"target":{
						"node":3,
						"path":"scale"
					}
				},
				{
					"sampler":21,
					"target":{
						"node":2,
						"path":"translation"
					}
				},
				{
					"sampler":22,
					"target":{
						"node":2,
						"path":"rotation"
					}
				},
				{
					"sampler":23,
					"target":{
						"node":2,
						"path":"scale"
					}
				},
				{
					"sampler":24,
					"target":{
						"node":7,
						"path":"translation"
					}
				},
				{
					"sampler":25,
					"target":{
						"node":7,
						"path":"rotation"
					}
				},
				{
					"sampler":26,
					"target":{
						"node":7,
						"path":"scale"
					}
				},
				{
					"sampler":27,
					"target":{
						"node":6,
						"path":"translation"
					}
				},
				{
					"sampler":28,
					"target":{
						"node":6,
						"path":"rotation"
					}
				},
				{
					"sampler":29,
					"target":{
						"node":6,
						"path":"scale"
					}
				},
				{
					"sampler":30,
					"target":{
						"node":5,
						"path":"translation"
					}
				},
				{
					"sampler":31,
					"target":{
						"node":5,
						"path":"rotation"
					}
				},
				{
					"sampler":32,
					"target":{
						"node":5,
						"path":"scale"
					}
				},
				{
					"sampler":33,
					"target":{
						"node":13,
						"path":"translation"
					}
				},
				{
					"sampler":34,
					"target":{
						"node":13,
						"path":"rotation"
					}
				},
				{
					"sampler":35,
					"target":{
						"node":13,
						"path":"scale"
					}
				},
				{
					"sampler":36,
					"target":{
						"node":12,
						"path":"translation"
					}
				},
				{
					"sampler":37,
					"target":{
						"node":12,
						"path":"rotation"
					}
				},
				{
					"sampler":38,
					"target":{
						"node":12,
						"path":"scale"
					}
				},
				{
					"sampler":39,
					"target":{
						"node":11,
						"path":"translation"
					}
				},
				{
					"sampler":40,
					"target":{
						"node":11,
						"path":"rotation"
					}
				},
				{
					"sampler":41,
					"target":{
						"node":11,
						"path":"scale"
					}
				},
				{
					"sampler":42,
					"target":{
						"node":10,
						"path":"translation"
					}
				},
				{
					"sampler":43,
					"target":{
						"node":10,
						"path":"rotation"
					}
				},
				{
					"sampler":44,
					"target":{
						"node":10,
						"path":"scale"
					}
				},
				{
					"sampler":45,
					"target":{
						"node":17,
						"path":"translation"
					}
				},
				{
					"sampler":46,
					"target":{
						"node":17,
						"path":"rotation"
					}
				},
				{
					"sampler":47,
					"target":{
						"node":17,
						"path":"scale"
					}
				},
				{
					"sampler":48,
					"target":{
						"node":16,
						"path":"translation"
					}
				},
				{
					"sampler":49,
					"target":{
						"node":16,
						"path":"rotation"
					}
				},
				{
					"sampler":50,
					"target":{
						"node":16,
						"path":"scale"
					}
				},
				{
					"sampler":51,
					"target":{
						"node":15,
						"path":"translation"
					}
				},
				{
					"sampler":52,
					"target":{
						"node":15,
						"path":"rotation"
					}
				},
				{
					"sampler":53,
					"target":{
						"node":15,
						"path":"scale"
					}
				},
				{
					"sampler":54,
					"target":{
						"node":14,
						"path":"translation"
					}
				},
				{
					"sampler":55,
					"target":{
						"node":14,
						"path":"rotation"
					}
				},
				{
					"sampler":56,
					"target":{
						"node":14,
						"path":"scale"
					}
				}
			],
			"name":"Anim_0",
			"samplers":[
				{
					"input":6,
					"interpolation":"STEP",
					"output":7
				},
				{
					"input":6,
					"interpolation":"STEP",
					"output":8
				},
				{
					"input":6,
					"interpolation":"STEP",
					"output":9
				},
				{
					"input":6,
					"interpolation":"STEP",
					"output":10
				},
				{
					"input":6,
					"interpolation":"STEP",
					"output":11
				},
				{
					"input":6,
					"interpolation":"STEP",
					"output":12
				},
				{
					"input":6,
					"interpolation":"STEP",
					"output":13
				},
				{
					"input":6,
					"interpolation":"STEP",
					"output":14
				},
				{
					"input":6,
					"interpolation":"STEP",
					"output":15
				},
				{
					"input":6,
					"interpolation":"LINEAR",
					"output":16
				},
				{
					"input":17,
					"interpolation":"LINEAR",
					"output":18
				},
				{
					"input":6,
					"interpolation":"STEP",
					"output":19
				},
				{
					"input":6,
					"interpolation":"LINEAR",
					"output":20
				},
				{
					"input":17,
					"interpolation":"LINEAR",
					"output":21
				},
				{
					"input":6,
					"interpolation":"STEP",
					"output":22
				},
				{
					"input":6,
					"interpolation":"LINEAR",
					"output":23
				},
				{
					"input":17,
					"interpolation":"LINEAR",
					"output":24
				},
				{
					"input":6,
					"interpolation":"LINEAR",
					"output":25
				},
				{
					"input":6,
					"interpolation":"LINEAR",
					"output":26
				},
				{
					"input":6,
					"interpolation":"LINEAR",
					"output":27
				},
				{
					"input":6,
					"interpolation":"LINEAR",
					"output":28
				},
				{
					"input":6,
					"interpolation":"LINEAR",
					"output":29
				},
				{
					"input":6,
					"interpolation":"LINEAR",
					"output":30
				},
				{
					"input":6,
					"interpolation":"STEP",
					"output":31
				},
				{
					"input":6,
					"interpolation":"LINEAR",
					"output":32
				},
				{
					"input":17,
					"interpolation":"LINEAR",
					"output":33
				},
				{
					"input":6,
					"interpolation":"LINEAR",
					"output":34
				},
				{
					"input":6,
					"interpolation":"LINEAR",
					"output":35
				},
				{
					"input":6,
					"interpolation":"LINEAR",
					"output":36
				},
				{
					"input":6,
					"interpolation":"LINEAR",
					"output":37
				},
				{
					"input":6,
					"interpolation":"LINEAR",
					"output":38
				},
				{
					"input":6,
					"interpolation":"LINEAR",
					"output":39
				},
				{
					"input":6,
					"interpolation":"STEP",
					"output":40
				},
				{
					"input":6,
					"interpolation":"STEP",
					"output":41
				},
				{
					"input":6,
					"interpolation":"STEP",
					"output":42
				},
				{
					"input":6,
					"interpolation":"STEP",
					"output":43
				},
				{
					"input":6,
					"interpolation":"STEP",
					"output":44
				},
				{
					"input":6,
					"interpolation":"STEP",
					"output":45
				},
				{
					"input":6,
					"interpolation":"STEP",
					"output":46
				},
				{
					"input":6,
					"interpolation":"STEP",
					"output":47
				},
				{
					"input":6,
					"interpolation":"STEP",
					"output":48
				},
				{
					"input":6,
					"interpolation":"STEP",
					"output":49
				},
				{
					"input":6,
					"interpolation":"STEP",
					"output":50
				},
				{
					"input":6,
					"interpolation":"STEP",
					"output":51
				},
				{
					"input":6,
					"interpolation":"STEP",
					"output":52
				},
				{
					"input":6,
					"interpolation":"STEP",
					"output":53
				},
				{
					"input":6,
					"interpolation":"STEP",
					"output":54
				},
				{
					"input":6,
					"interpolation":"STEP",
					"output":55
				},
				{
					"input":6,
					"interpolation":"STEP",
					"output":56
				},
				{
					"input":6,
					"interpolation":"STEP",
					"output":57
				},
				{
					"input":6,
					"interpolation":"STEP",
					"output":58
				},
				{
					"input":6,
					"interpolation":"STEP",
					"output":59
				},
				{
					"input":6,
					"interpolation":"STEP",
					"output":60
				},
				{
					"input":6,
					"interpolation":"STEP",
					"output":61
				},
				{
					"input":6,
					"interpolation":"STEP",
					"output":62
				},
				{
					"input":6,
					"interpolation":"STEP",
					"output":63
				},
				{
					"input":6,
					"interpolation":"STEP",
					"output":64
				}
			]
		}
	],
	"materials":[
		{
			"name":"Default-effect",
			"pbrMetallicRoughness":{
				"baseColorFactor":[
					0.800000011920929,
					0.800000011920929,
					0.800000011920929,
					1
				],
				"metallicFactor":0
			}
		}
	],
	"meshes":[
		{
			"name":"Proxy",
			"primitives":[
				{
					"attributes":{
						"POSITION":0,
						"NORMAL":1,
						"JOINTS_0":2,
						"WEIGHTS_0":3
					},
					"indices":4,
					"material":0
				}
			]
		}
	],
	"skins":[
		{
			"inverseBindMatrices":5,
			"joints":[
				18,
				9,
				8,
				1,
				0,
				4,
				3,
				2,
				7,
				6,
				5,
				13,
				12,
				11,
				10,
				17,
				16,
				15,
				14
			],
			"name":"Armature"
		}
	],
	"accessors":[
		{
			"bufferView":0,
			"componentType":5126,
			"count":370,
			"max":[
				0.5894612073898315,
				1.4499202966690063,
				0.13091781735420227
			],
			"min":[
				-0.5894606709480286,
				1.9493440106543858e-07,
				-0.1949773132801056
			],
			"type":"VEC3"
		},
		{
			"bufferView":1,
			"componentType":5126,
			"count":370,
			"type":"VEC3"
		},
		{
			"bufferView":2,
			"componentType":5121,
			"count":370,
			"type":"VEC4"
		},
		{
			"bufferView":3,
			"componentType":5126,
			"count":370,
			"type":"VEC4"
		},
		{
			"bufferView":4,
			"componentType":5123,
			"count":768,
			"type":"SCALAR"
		},
		{
			"bufferView":5,
			"componentType":5126,
			"count":19,
			"type":"MAT4"
		},
		{
			"bufferView":6,
			"componentType":5126,
			"count":2,
			"max":[
				1.25
			],
			"min":[
				0
			],
			"type":"SCALAR"
		},
		{
			"bufferView":7,
			"componentType":5126,
			"count":2,
			"type":"VEC3"
		},
		{
			"bufferView":8,
			"componentType":5126,
			"count":2,
			"type":"VEC4"
		},
		{
			"bufferView":9,
			"componentType":5126,
			"count":2,
			"type":"VEC3"
		},
		{
			"bufferView":10,
			"componentType":5126,
			"count":2,
			"type":"VEC3"
		},
		{
			"bufferView":11,
			"componentType":5126,
			"count":2,
			"type":"VEC4"
		},
		{
			"bufferView":12,
			"componentType":5126,
			"count":2,
			"type":"VEC3"
		},
		{
			"bufferView":13,
			"componentType":5126,
			"count":2,
			"type":"VEC3"
		},
		{
			"bufferView":14,
			"componentType":5126,
			"count":2,
			"type":"VEC4"
		},
		{
			"bufferView":15,
			"componentType":5126,
			"count":2,
			"type":"VEC3"
		},
		{
			"bufferView":16,
			"componentType":5126,
			"count":2,
			"type":"VEC3"
		},
		{
			"bufferView":17,
			"componentType":5126,
			"count":31,
			"max":[
				1.25
			],
			"min":[
				0
			],
			"type":"SCALAR"
		},
		{
			"bufferView":18,
			"componentType":5126,
			"count":31,
			"type":"VEC4"
		},
		{
			"bufferView":19,
			"componentType":5126,
			"count":2,
			"type":"VEC3"
		},
		{
			"bufferView":20,
			"componentType":5126,
			"count":2,
			"type":"VEC3"
		},
		{
			"bufferView":21,
			"componentType":5126,
			"count":31,
			"type":"VEC4"
		},
		{
			"bufferView":22,
			"componentType":5126,
			"count":2,
			"type":"VEC3"
		},
		{
			"bufferView":23,
			"componentType":5126,
			"count":2,
			"type":"VEC3"
		},
		{
			"bufferView":24,
			"componentType":5126,
			"count":31,
			"type":"VEC4"
		},
		{
			"bufferView":25,
			"componentType":5126,
			"count":2,
			"type":"VEC3"
		},
		{
			"bufferView":26,
			"componentType":5126,
			"count":2,
			"type":"VEC3"
		},
		{
			"bufferView":27,
			"componentType":5126,
			"count":2,
			"type":"VEC4"
		},
		{
			"bufferView":28,
			"componentType":5126,
			"count":2,
			"type":"VEC3"
		},
		{
			"bufferView":29,
			"componentType":5126,
			"count":2,
			"type":"VEC3"
		},
		{
			"bufferView":30,
			"componentType":5126,
			"count":2,
			"type":"VEC4"
		},
		{
			"bufferView":31,
			"componentType":5126,
			"count":2,
			"type":"VEC3"
		},
		{
			"bufferView":32,
			"componentType":5126,
			"count":2,
			"type":"VEC3"
		},
		{
			"bufferView":33,
			"componentType":5126,
			"count":31,
			"type":"VEC4"
		},
		{
			"bufferView":34,
			"componentType":5126,
			"count":2,
			"type":"VEC3"
		},
		{
			"bufferView":35,
			"componentType":5126,
			"count":2,
			"type":"VEC3"
		},
		{
			"bufferView":36,
			"componentType":5126,
			"count":2,
			"type":"VEC4"
		},
		{
			"bufferView":37,
			"componentType":5126,
			"count":2,
			"type":"VEC3"
		},
		{
			"bufferView":38,
			"componentType":5126,
			"count":2,
			"type":"VEC3"
		},
		{
			"bufferView":39,
			"componentType":5126,
			"count":2,
			"type":"VEC4"
		},
		{
			"bufferView":40,
			"componentType":5126,
			"count":2,
			"type":"VEC3"
		},
		{
			"bufferView":41,
			"componentType":5126,
			"count":2,
			"type":"VEC3"
		},
		{
			"bufferView":42,
			"componentType":5126,
			"count":2,
			"type":"VEC4"
		},
		{
			"bufferView":43,
			"componentType":5126,
			"count":2,
			"type":"VEC3"
		},
		{
			"bufferView":44,
			"componentType":5126,
			"count":2,
			"type":"VEC3"
		},
		{
			"bufferView":45,
			"componentType":5126,
			"count":2,
			"type":"VEC4"
		},
		{
			"bufferView":46,
			"componentType":5126,
			"count":2,
			"type":"VEC3"
		},
		{
			"bufferView":47,
			"componentType":5126,
			"count":2,
			"type":"VEC3"
		},
		{
			"bufferView":48,
			"componentType":5126,
			"count":2,
			"type":"VEC4"
		},
		{
			"bufferView":49,
			"componentType":5126,
			"count":2,
			"type":"VEC3"
		},
		{
			"bufferView":50,
			"componentType":5126,
			"count":2,
			"type":"VEC3"
		},
		{
			"bufferView":51,
			"componentType":5126,
			"count":2,
			"type":"VEC4"
		},
		{
			"bufferView":52,
			"componentType":5126,
			"count":2,
			"type":"VEC3"
		},
		{
			"bufferView":53,
			"componentType":5126,
			"count":2,
			"type":"VEC3"
		},
		{
			"bufferView":54,
			"componentType":5126,
			"count":2,
			"type":"VEC4"
		},
		{
			"bufferView":55,
			"componentType":5126,
			"count":2,
			"type":"VEC3"
		},
		{
			"bufferView":56,
			"componentType":5126,
			"count":2,
			"type":"VEC3"
		},
		{
			"bufferView":57,
			"componentType":5126,
			"count":2,
			"type":"VEC4"
		},
		{
			"bufferView":58,
			"componentType":5126,
			"count":2,
			"type":"VEC3"
		},
		{
			"bufferView":59,
			"componentType":5126,
			"count":2,
			"type":"VEC3"
		},
		{
			"bufferView":60,
			"componentType":5126,
			"count":2,
			"type":"VEC4"
		},
		{
			"bufferView":61,
			"componentType":5126,
			"count":2,
			"type":"VEC3"
		},
		{
			"bufferView":62,
			"componentType":5126,
			"count":2,
			"type":"VEC3"
		},
		{
			"bufferView":63,
			"componentType":5126,
			"count":2,
			"type":"VEC4"
		},
		{
			"bufferView":64,
			"componentType":5126,
			"count":2,
			"type":"VEC3"
		}
	],
	"bufferViews":[
		{
			"buffer":0,
			"byteLength":4440,
			"byteOffset":0,
			"target":34962
		},
		{
			"buffer":0,
			"byteLength":4440,
			"byteOffset":4440,
			"target":34962
		},
		{
			"buffer":0,
			"byteLength":1480,
			"byteOffset":8880,
			"target":34962
		},
		{
			"buffer":0,
			"byteLength":5920,
			"byteOffset":10360,
			"target":34962
		},
		{
			"buffer":0,
			"byteLength":1536,
			"byteOffset":16280,
			"target":34963
		},
		{
			"buffer":0,
			"byteLength":1216,
			"byteOffset":17816
		},
		{
			"buffer":0,
			"byteLength":8,
			"byteOffset":19032
		},
		{
			"buffer":0,
			"byteLength":24,
			"byteOffset":19040
		},
		{
			"buffer":0,
			"byteLength":32,
			"byteOffset":19064
		},
		{
			"buffer":0,
			"byteLength":24,
			"byteOffset":19096
		},
		{
			"buffer":0,
			"byteLength":24,
			"byteOffset":19120
		},
		{
			"buffer":0,
			"byteLength":32,
			"byteOffset":19144
		},
		{
			"buffer":0,
			"byteLength":24,
			"byteOffset":19176
		},
		{
			"buffer":0,
			"byteLength":24,
			"byteOffset":19200
		},
		{
			"buffer":0,
			"byteLength":32,
			"byteOffset":19224
		},
		{
			"buffer":0,
			"byteLength":24,
			"byteOffset":19256
		},
		{
			"buffer":0,
			"byteLength":24,
			"byteOffset":19280
		},
		{
			"buffer":0,
			"byteLength":124,
			"byteOffset":19304
		},
		{
			"buffer":0,
			"byteLength":496,
			"byteOffset":19428
		},
		{
			"buffer":0,
			"byteLength":24,
			"byteOffset":19924
		},
		{
			"buffer":0,
			"byteLength":24,
			"byteOffset":19948
		},
		{
			"buffer":0,
			"byteLength":496,
			"byteOffset":19972
		},
		{
			"buffer":0,
			"byteLength":24,
			"byteOffset":20468
		},
		{
			"buffer":0,
			"byteLength":24,
			"byteOffset":20492
		},
		{
			"buffer":0,
			"byteLength":496,
			"byteOffset":20516
		},
		{
			"buffer":0,
			"byteLength":24,
			"byteOffset":21012
		},
		{
			"buffer":0,
			"byteLength":24,
			"byteOffset":21036
		},
		{
			"buffer":0,
			"byteLength":32,
			"byteOffset":21060
		},
		{
			"buffer":0,
			"byteLength":24,
			"byteOffset":21092
		},
		{
			"buffer":0,
			"byteLength":24,
			"byteOffset":21116
		},
		{
			"buffer":0,
			"byteLength":32,
			"byteOffset":21140
		},
		{
			"buffer":0,
			"byteLength":24,
			"byteOffset":21172
		},
		{
			"buffer":0,
			"byteLength":24,
			"byteOffset":21196
		},
		{
			"buffer":0,
			"byteLength":496,
			"byteOffset":21220
		},
		{
			"buffer":0,
			"byteLength":24,
			"byteOffset":21716
		},
		{
			"buffer":0,
			"byteLength":24,
			"byteOffset":21740
		},
		{
			"buffer":0,
			"byteLength":32,
			"byteOffset":21764
		},
		{
			"buffer":0,
			"byteLength":24,
			"byteOffset":21796
		},
		{
			"buffer":0,
			"byteLength":24,
			"byteOffset":21820
		},
		{
			"buffer":0,
			"byteLength":32,
			"byteOffset":21844
		},
		{
			"buffer":0,
			"byteLength":24,
			"byteOffset":21876
		},
		{
			"buffer":0,
			"byteLength":24,
			"byteOffset":21900
		},
		{
			"buffer":0,
			"byteLength":32,
			"byteOffset":21924
		},
		{
			"buffer":0,
			"byteLength":24,
			"byteOffset":21956
		},
		{
			"buffer":0,
			"byteLength":24,
			"byteOffset":21980
		},
		{
			"buffer":0,
			"byteLength":32,
			"byteOffset":22004
		},
		{
			"buffer":0,
			"byteLength":24,
			"byteOffset":22036
		},
		{
			"buffer":0,
			"byteLength":24,
			"byteOffset":22060
		},
		{
			"buffer":0,
			"byteLength":32,
			"byteOffset":22084
		},
		{
			"buffer":0,
			"byteLength":24,
			"byteOffset":22116
		},
		{
			"buffer":0,
			"byteLength":24,
			"byteOffset":22140
		},
		{
			"buffer":0,
			"byteLength":32,
			"byteOffset":22164
		},
		{
			"buffer":0,
			"byteLength":24,
			"byteOffset":22196
		},
		{
			"buffer":0,
			"byteLength":24,
			"byteOffset":22220
		},
		{
			"buffer":0,
			"byteLength":32,
			"byteOffset":22244
		},
		{
			"buffer":0,
			"byteLength":24,
			"byteOffset":22276
		},
		{
			"buffer":0,
			"byteLength":24,
			"byteOffset":22300
		},
		{
			"buffer":0,
			"byteLength":32,
			"byteOffset":22324
		},
		{
			"buffer":0,
			"byteLength":24,
			"byteOffset":22356
		},
		{
			"buffer":0,
			"byteLength":24,
			"byteOffset":22380
		},
		{
			"buffer":0,
			"byteLength":32,
			"byteOffset":22404
		},
		{
			"buffer":0,
			"byteLength":24,
			"byteOffset":22436
		},
		{
			"buffer":0,
			"byteLength":24,
			"byteOffset":22460
		},
		{
			"buffer":0,
			"byteLength":32,
			"byteOffset":22484
		},
		{
			"buffer":0,
			"byteLength":24,
			"byteOffset":22516
		}
	],
	"buffers":[
		{
			"byteLength":22540,
			"uri":"rigtest.bin"
		}
	]
}
