{
	"asset":{
		"generator":"Khronos glTF Blender I/O v4.2.70",
		"version":"2.0"
	},
	"scene":0,
	"scenes":[
		{
			"name":"Scene",
			"nodes":[
				0
			]
		}
	],
	"nodes":[
		{
			"mesh":0,
			"name":"Text"
		}
	],
	"materials":[
		{
			"doubleSided":true,
			"name":"Material.001",
			"pbrMetallicRoughness":{
				"baseColorTexture":{
					"index":0
				},
				"metallicFactor":0,
				"roughnessFactor":0.5
			}
		}
	],
	"meshes":[
		{
			"name":"Text",
			"primitives":[
				{
					"attributes":{
						"POSITION":0,
						"NORMAL":1,
						"TEXCOORD_0":2
					},
					"indices":3,
					"material":0
				}
			]
		}
	],
	"textures":[
		{
			"sampler":0,
			"source":0
		}
	],
	"images":[
		{
			"mimeType":"image/jpeg",
			"name":"makar",
			"uri":"textures/makar.jpg"
		}
	],
	"accessors":[
		{
			"bufferView":0,
			"componentType":5126,
			"count":3094,
			"max":[
				14.823653221130371,
				0.030000001192092896,
				0.35053667426109314
			],
			"min":[
				-14.743123054504395,
				0,
				-0.4325283467769623
			],
			"type":"VEC3"
		},
		{
			"bufferView":1,
			"componentType":5126,
			"count":3094,
			"type":"VEC3"
		},
		{
			"bufferView":2,
			"componentType":5126,
			"count":3094,
			"type":"VEC2"
		},
		{
			"bufferView":3,
			"componentType":5123,
			"count":13050,
			"type":"SCALAR"
		}
	],
	"bufferViews":[
		{
			"buffer":0,
			"byteLength":37128,
			"byteOffset":0,
			"target":34962
		},
		{
			"buffer":0,
			"byteLength":37128,
			"byteOffset":37128,
			"target":34962
		},
		{
			"buffer":0,
			"byteLength":24752,
			"byteOffset":74256,
			"target":34962
		},
		{
			"buffer":0,
			"byteLength":26100,
			"byteOffset":99008,
			"target":34963
		}
	],
	"samplers":[
		{
			"magFilter":9729,
			"minFilter":9987
		}
	],
	"buffers":[
		{
			"byteLength":125108,
			"uri":"testtext.bin"
		}
	]
}
